<mxfile host="app.diagrams.net" modified="2023-10-19T15:58:05.846Z" agent="Mozilla/5.0 (Macintosh; Intel Mac OS X 10_15_7) AppleWebKit/537.36 (KHTML, like Gecko) Chrome/118.0.0.0 Safari/537.36" etag="OM4P81KFg9BICez8i3Qk" version="22.0.5" type="device" pages="4">
  <diagram name="ページ1" id="yPWh1t6rHSZyYPfJQf3b">
    <mxGraphModel dx="1242" dy="832" grid="1" gridSize="10" guides="1" tooltips="1" connect="1" arrows="1" fold="1" page="1" pageScale="1" pageWidth="827" pageHeight="1169" math="0" shadow="0">
      <root>
        <mxCell id="0" />
        <mxCell id="1" parent="0" />
        <mxCell id="gUC6_gnR5BdK7CFcpNiF-1" value="エンドユーザー" style="shape=umlActor;verticalLabelPosition=bottom;verticalAlign=top;html=1;outlineConnect=0;" parent="1" vertex="1">
          <mxGeometry x="60" y="180" width="30" height="60" as="geometry" />
        </mxCell>
        <mxCell id="gUC6_gnR5BdK7CFcpNiF-2" value="エンドユーザー" style="shape=umlActor;verticalLabelPosition=bottom;verticalAlign=top;html=1;outlineConnect=0;" parent="1" vertex="1">
          <mxGeometry x="60" y="270" width="30" height="60" as="geometry" />
        </mxCell>
        <mxCell id="gUC6_gnR5BdK7CFcpNiF-3" value="エンドユーザー" style="shape=umlActor;verticalLabelPosition=bottom;verticalAlign=top;html=1;outlineConnect=0;" parent="1" vertex="1">
          <mxGeometry x="60" y="380" width="30" height="60" as="geometry" />
        </mxCell>
        <mxCell id="gUC6_gnR5BdK7CFcpNiF-4" value="PKPWallet" style="shape=cube;whiteSpace=wrap;html=1;boundedLbl=1;backgroundOutline=1;darkOpacity=0.05;darkOpacity2=0.1;" parent="1" vertex="1">
          <mxGeometry x="170" y="170" width="120" height="80" as="geometry" />
        </mxCell>
        <mxCell id="gUC6_gnR5BdK7CFcpNiF-5" value="PKPWallet" style="shape=cube;whiteSpace=wrap;html=1;boundedLbl=1;backgroundOutline=1;darkOpacity=0.05;darkOpacity2=0.1;" parent="1" vertex="1">
          <mxGeometry x="170" y="270" width="120" height="80" as="geometry" />
        </mxCell>
        <mxCell id="gUC6_gnR5BdK7CFcpNiF-6" value="PKPWallet" style="shape=cube;whiteSpace=wrap;html=1;boundedLbl=1;backgroundOutline=1;darkOpacity=0.05;darkOpacity2=0.1;" parent="1" vertex="1">
          <mxGeometry x="170" y="370" width="120" height="80" as="geometry" />
        </mxCell>
        <mxCell id="gUC6_gnR5BdK7CFcpNiF-7" value="バイコノミーの&lt;br&gt;バンドラー" style="shape=cube;whiteSpace=wrap;html=1;boundedLbl=1;backgroundOutline=1;darkOpacity=0.05;darkOpacity2=0.1;" parent="1" vertex="1">
          <mxGeometry x="400" y="270" width="120" height="80" as="geometry" />
        </mxCell>
        <mxCell id="gUC6_gnR5BdK7CFcpNiF-8" value="開発者" style="shape=umlActor;verticalLabelPosition=bottom;verticalAlign=top;html=1;outlineConnect=0;" parent="1" vertex="1">
          <mxGeometry x="450" y="460" width="30" height="60" as="geometry" />
        </mxCell>
        <mxCell id="gUC6_gnR5BdK7CFcpNiF-9" value="" style="ellipse;shape=cloud;whiteSpace=wrap;html=1;" parent="1" vertex="1">
          <mxGeometry x="540" y="70" width="350" height="460" as="geometry" />
        </mxCell>
        <mxCell id="gUC6_gnR5BdK7CFcpNiF-10" value="smartwallet&lt;br&gt;(ユーザー毎に作られる)" style="shape=cube;whiteSpace=wrap;html=1;boundedLbl=1;backgroundOutline=1;darkOpacity=0.05;darkOpacity2=0.1;" parent="1" vertex="1">
          <mxGeometry x="620" y="280" width="100" height="70" as="geometry" />
        </mxCell>
        <mxCell id="gUC6_gnR5BdK7CFcpNiF-12" value="" style="shape=flexArrow;endArrow=classic;html=1;rounded=0;" parent="1" edge="1">
          <mxGeometry width="50" height="50" relative="1" as="geometry">
            <mxPoint x="465" y="440" as="sourcePoint" />
            <mxPoint x="465" y="370" as="targetPoint" />
          </mxGeometry>
        </mxCell>
        <mxCell id="gUC6_gnR5BdK7CFcpNiF-13" value="paymaterで&lt;br&gt;使うトークン" style="whiteSpace=wrap;html=1;aspect=fixed;" parent="1" vertex="1">
          <mxGeometry x="630" y="380" width="90" height="90" as="geometry" />
        </mxCell>
        <mxCell id="gUC6_gnR5BdK7CFcpNiF-14" value="" style="shape=flexArrow;endArrow=classic;html=1;rounded=0;entryX=-0.033;entryY=0.433;entryDx=0;entryDy=0;entryPerimeter=0;" parent="1" target="gUC6_gnR5BdK7CFcpNiF-13" edge="1">
          <mxGeometry width="50" height="50" relative="1" as="geometry">
            <mxPoint x="500" y="460" as="sourcePoint" />
            <mxPoint x="474.5" y="390" as="targetPoint" />
          </mxGeometry>
        </mxCell>
        <mxCell id="gUC6_gnR5BdK7CFcpNiF-15" value="レシピ1の&lt;br&gt;コントラクト" style="whiteSpace=wrap;html=1;aspect=fixed;" parent="1" vertex="1">
          <mxGeometry x="627.5" y="165" width="85" height="85" as="geometry" />
        </mxCell>
        <mxCell id="gUC6_gnR5BdK7CFcpNiF-16" value="" style="endArrow=classic;html=1;rounded=0;entryX=0.5;entryY=1;entryDx=0;entryDy=0;" parent="1" source="gUC6_gnR5BdK7CFcpNiF-10" target="gUC6_gnR5BdK7CFcpNiF-15" edge="1">
          <mxGeometry width="50" height="50" relative="1" as="geometry">
            <mxPoint x="390" y="450" as="sourcePoint" />
            <mxPoint x="440" y="400" as="targetPoint" />
          </mxGeometry>
        </mxCell>
        <mxCell id="gUC6_gnR5BdK7CFcpNiF-17" value="" style="endArrow=classic;html=1;rounded=0;exitX=0;exitY=0;exitDx=120;exitDy=50;exitPerimeter=0;" parent="1" source="gUC6_gnR5BdK7CFcpNiF-7" target="gUC6_gnR5BdK7CFcpNiF-10" edge="1">
          <mxGeometry width="50" height="50" relative="1" as="geometry">
            <mxPoint x="680" y="290" as="sourcePoint" />
            <mxPoint x="680" y="260" as="targetPoint" />
          </mxGeometry>
        </mxCell>
        <mxCell id="gUC6_gnR5BdK7CFcpNiF-18" value="v" style="endArrow=classic;html=1;rounded=0;entryX=0;entryY=0;entryDx=0;entryDy=30;entryPerimeter=0;" parent="1" source="gUC6_gnR5BdK7CFcpNiF-4" target="gUC6_gnR5BdK7CFcpNiF-7" edge="1">
          <mxGeometry width="50" height="50" relative="1" as="geometry">
            <mxPoint x="530" y="330" as="sourcePoint" />
            <mxPoint x="630" y="327" as="targetPoint" />
          </mxGeometry>
        </mxCell>
        <mxCell id="gUC6_gnR5BdK7CFcpNiF-19" value="v" style="endArrow=classic;html=1;rounded=0;exitX=0;exitY=0;exitDx=120;exitDy=50;exitPerimeter=0;" parent="1" source="gUC6_gnR5BdK7CFcpNiF-5" edge="1">
          <mxGeometry width="50" height="50" relative="1" as="geometry">
            <mxPoint x="300" y="252" as="sourcePoint" />
            <mxPoint x="400" y="300" as="targetPoint" />
          </mxGeometry>
        </mxCell>
        <mxCell id="gUC6_gnR5BdK7CFcpNiF-20" value="v" style="endArrow=classic;html=1;rounded=0;exitX=1;exitY=0.525;exitDx=0;exitDy=0;exitPerimeter=0;entryX=0;entryY=0;entryDx=0;entryDy=30;entryPerimeter=0;" parent="1" source="gUC6_gnR5BdK7CFcpNiF-6" target="gUC6_gnR5BdK7CFcpNiF-7" edge="1">
          <mxGeometry width="50" height="50" relative="1" as="geometry">
            <mxPoint x="300" y="330" as="sourcePoint" />
            <mxPoint x="410" y="310" as="targetPoint" />
          </mxGeometry>
        </mxCell>
        <mxCell id="gUC6_gnR5BdK7CFcpNiF-21" value="レシピ2の&lt;br&gt;コントラクト" style="whiteSpace=wrap;html=1;aspect=fixed;" parent="1" vertex="1">
          <mxGeometry x="742" y="167.5" width="85" height="85" as="geometry" />
        </mxCell>
        <mxCell id="gUC6_gnR5BdK7CFcpNiF-22" value="" style="endArrow=classic;html=1;rounded=0;entryX=0.5;entryY=1;entryDx=0;entryDy=0;" parent="1" target="gUC6_gnR5BdK7CFcpNiF-21" edge="1">
          <mxGeometry width="50" height="50" relative="1" as="geometry">
            <mxPoint x="670" y="280" as="sourcePoint" />
            <mxPoint x="680" y="260" as="targetPoint" />
          </mxGeometry>
        </mxCell>
        <mxCell id="gUC6_gnR5BdK7CFcpNiF-23" value="smartwallet&lt;br&gt;(ユーザー毎に作られる)" style="shape=cube;whiteSpace=wrap;html=1;boundedLbl=1;backgroundOutline=1;darkOpacity=0.05;darkOpacity2=0.1;" parent="1" vertex="1">
          <mxGeometry x="642" y="290" width="100" height="70" as="geometry" />
        </mxCell>
        <mxCell id="gUC6_gnR5BdK7CFcpNiF-24" value="smartwallet&lt;br&gt;(ユーザー毎に作られる)" style="shape=cube;whiteSpace=wrap;html=1;boundedLbl=1;backgroundOutline=1;darkOpacity=0.05;darkOpacity2=0.1;" parent="1" vertex="1">
          <mxGeometry x="665" y="300" width="100" height="70" as="geometry" />
        </mxCell>
      </root>
    </mxGraphModel>
  </diagram>
  <diagram id="0zHSAnJ6Bxo3-YEnC92o" name="コントラクトレイヤーの設計図">
    <mxGraphModel dx="1046" dy="680" grid="1" gridSize="10" guides="1" tooltips="1" connect="1" arrows="1" fold="1" page="1" pageScale="1" pageWidth="827" pageHeight="1169" math="0" shadow="0">
      <root>
        <mxCell id="0" />
        <mxCell id="1" parent="0" />
        <mxCell id="ZEDiORMJZf2rdvYhDFbM-1" value="FRKT&lt;br&gt;NFT&lt;br&gt;factory" style="shape=cube;whiteSpace=wrap;html=1;boundedLbl=1;backgroundOutline=1;darkOpacity=0.05;darkOpacity2=0.1;" parent="1" vertex="1">
          <mxGeometry x="100" y="460" width="120" height="80" as="geometry" />
        </mxCell>
        <mxCell id="ZEDiORMJZf2rdvYhDFbM-2" value="CCIP&lt;br&gt;Sender&lt;br&gt;factory" style="shape=cube;whiteSpace=wrap;html=1;boundedLbl=1;backgroundOutline=1;darkOpacity=0.05;darkOpacity2=0.1;" parent="1" vertex="1">
          <mxGeometry x="100" y="130" width="120" height="80" as="geometry" />
        </mxCell>
        <mxCell id="ZEDiORMJZf2rdvYhDFbM-3" value="CCIP&amp;nbsp;&lt;br&gt;Sender&lt;br&gt;Contract" style="shape=cube;whiteSpace=wrap;html=1;boundedLbl=1;backgroundOutline=1;darkOpacity=0.05;darkOpacity2=0.1;" parent="1" vertex="1">
          <mxGeometry x="390" y="140" width="120" height="80" as="geometry" />
        </mxCell>
        <mxCell id="ZEDiORMJZf2rdvYhDFbM-4" value="CCIP&lt;br&gt;Reciver&lt;br&gt;Contract" style="shape=cube;whiteSpace=wrap;html=1;boundedLbl=1;backgroundOutline=1;darkOpacity=0.05;darkOpacity2=0.1;" parent="1" vertex="1">
          <mxGeometry x="390" y="310" width="120" height="80" as="geometry" />
        </mxCell>
        <mxCell id="ZEDiORMJZf2rdvYhDFbM-7" value="" style="endArrow=classic;html=1;rounded=0;exitX=1.017;exitY=0.55;exitDx=0;exitDy=0;exitPerimeter=0;entryX=0;entryY=0;entryDx=0;entryDy=30;entryPerimeter=0;" parent="1" source="ZEDiORMJZf2rdvYhDFbM-2" target="ZEDiORMJZf2rdvYhDFbM-3" edge="1">
          <mxGeometry width="50" height="50" relative="1" as="geometry">
            <mxPoint x="390" y="450" as="sourcePoint" />
            <mxPoint x="440" y="400" as="targetPoint" />
          </mxGeometry>
        </mxCell>
        <mxCell id="ZEDiORMJZf2rdvYhDFbM-8" value="" style="endArrow=classic;html=1;rounded=0;entryX=0;entryY=0;entryDx=0;entryDy=30;entryPerimeter=0;" parent="1" target="ZEDiORMJZf2rdvYhDFbM-4" edge="1">
          <mxGeometry width="50" height="50" relative="1" as="geometry">
            <mxPoint x="220" y="340" as="sourcePoint" />
            <mxPoint x="400" y="180" as="targetPoint" />
          </mxGeometry>
        </mxCell>
        <mxCell id="ZEDiORMJZf2rdvYhDFbM-9" value="NFT&lt;br&gt;Contract" style="shape=cube;whiteSpace=wrap;html=1;boundedLbl=1;backgroundOutline=1;darkOpacity=0.05;darkOpacity2=0.1;" parent="1" vertex="1">
          <mxGeometry x="390" y="480" width="120" height="80" as="geometry" />
        </mxCell>
        <mxCell id="ZEDiORMJZf2rdvYhDFbM-10" value="Sign&lt;br&gt;Contract" style="shape=cube;whiteSpace=wrap;html=1;boundedLbl=1;backgroundOutline=1;darkOpacity=0.05;darkOpacity2=0.1;" parent="1" vertex="1">
          <mxGeometry x="390" y="640" width="120" height="80" as="geometry" />
        </mxCell>
        <mxCell id="ZEDiORMJZf2rdvYhDFbM-11" value="" style="endArrow=classic;html=1;rounded=0;exitX=0;exitY=0;exitDx=120;exitDy=50;exitPerimeter=0;" parent="1" source="ZEDiORMJZf2rdvYhDFbM-1" edge="1">
          <mxGeometry width="50" height="50" relative="1" as="geometry">
            <mxPoint x="232" y="604" as="sourcePoint" />
            <mxPoint x="390" y="510" as="targetPoint" />
          </mxGeometry>
        </mxCell>
        <mxCell id="ZEDiORMJZf2rdvYhDFbM-12" value="" style="endArrow=classic;html=1;rounded=0;entryX=0;entryY=0;entryDx=0;entryDy=30;entryPerimeter=0;" parent="1" target="ZEDiORMJZf2rdvYhDFbM-10" edge="1">
          <mxGeometry width="50" height="50" relative="1" as="geometry">
            <mxPoint x="230" y="670" as="sourcePoint" />
            <mxPoint x="400" y="520" as="targetPoint" />
          </mxGeometry>
        </mxCell>
        <mxCell id="ZEDiORMJZf2rdvYhDFbM-13" value="CCIP&lt;br&gt;Reciver&lt;br&gt;factory" style="shape=cube;whiteSpace=wrap;html=1;boundedLbl=1;backgroundOutline=1;darkOpacity=0.05;darkOpacity2=0.1;" parent="1" vertex="1">
          <mxGeometry x="100" y="300" width="120" height="80" as="geometry" />
        </mxCell>
        <mxCell id="ZEDiORMJZf2rdvYhDFbM-14" value="FRKT&lt;br&gt;Sign&lt;br&gt;factory" style="shape=cube;whiteSpace=wrap;html=1;boundedLbl=1;backgroundOutline=1;darkOpacity=0.05;darkOpacity2=0.1;" parent="1" vertex="1">
          <mxGeometry x="110" y="620" width="120" height="80" as="geometry" />
        </mxCell>
        <mxCell id="ZEDiORMJZf2rdvYhDFbM-15" value="have recipe ID" style="shape=callout;whiteSpace=wrap;html=1;perimeter=calloutPerimeter;" parent="1" vertex="1">
          <mxGeometry x="160" y="40" width="120" height="80" as="geometry" />
        </mxCell>
        <mxCell id="ZEDiORMJZf2rdvYhDFbM-17" value="have recipe ID" style="shape=callout;whiteSpace=wrap;html=1;perimeter=calloutPerimeter;" parent="1" vertex="1">
          <mxGeometry x="160" y="240" width="120" height="80" as="geometry" />
        </mxCell>
        <mxCell id="ZEDiORMJZf2rdvYhDFbM-18" value="have recipe ID" style="shape=callout;whiteSpace=wrap;html=1;perimeter=calloutPerimeter;" parent="1" vertex="1">
          <mxGeometry x="160" y="400" width="120" height="80" as="geometry" />
        </mxCell>
        <mxCell id="ZEDiORMJZf2rdvYhDFbM-19" value="have recipe ID" style="shape=callout;whiteSpace=wrap;html=1;perimeter=calloutPerimeter;" parent="1" vertex="1">
          <mxGeometry x="160" y="560" width="120" height="80" as="geometry" />
        </mxCell>
      </root>
    </mxGraphModel>
  </diagram>
  <diagram id="m8rF2OLePvYMggXyJ-KL" name="SignContract">
    <mxGraphModel dx="1242" dy="832" grid="1" gridSize="10" guides="1" tooltips="1" connect="1" arrows="1" fold="1" page="1" pageScale="1" pageWidth="827" pageHeight="1169" math="0" shadow="0">
      <root>
        <mxCell id="0" />
        <mxCell id="1" parent="0" />
        <mxCell id="NqNF9cQIyHCTWcrlnUJ7-1" value="" style="ellipse;shape=cloud;whiteSpace=wrap;html=1;fillColor=#ffff88;strokeColor=#36393d;" parent="1" vertex="1">
          <mxGeometry x="414" y="200" width="406" height="350" as="geometry" />
        </mxCell>
        <mxCell id="NqNF9cQIyHCTWcrlnUJ7-2" value="Safe&lt;br&gt;Contract" style="shape=cube;whiteSpace=wrap;html=1;boundedLbl=1;backgroundOutline=1;darkOpacity=0.05;darkOpacity2=0.1;fillColor=#d5e8d4;strokeColor=#82b366;fontStyle=1" parent="1" vertex="1">
          <mxGeometry x="480" y="360" width="100" height="70" as="geometry" />
        </mxCell>
        <mxCell id="NqNF9cQIyHCTWcrlnUJ7-3" value="Actor1" style="shape=umlActor;verticalLabelPosition=bottom;verticalAlign=top;html=1;outlineConnect=0;" parent="1" vertex="1">
          <mxGeometry x="90" y="260" width="30" height="60" as="geometry" />
        </mxCell>
        <mxCell id="NqNF9cQIyHCTWcrlnUJ7-4" value="Actor2" style="shape=umlActor;verticalLabelPosition=bottom;verticalAlign=top;html=1;outlineConnect=0;" parent="1" vertex="1">
          <mxGeometry x="90" y="440" width="30" height="60" as="geometry" />
        </mxCell>
        <mxCell id="NqNF9cQIyHCTWcrlnUJ7-5" value="" style="endArrow=classic;html=1;rounded=0;entryX=0;entryY=0.5;entryDx=0;entryDy=0;" parent="1" source="NqNF9cQIyHCTWcrlnUJ7-3" target="SmUW5ULUvjNkLwcwujrM-6" edge="1">
          <mxGeometry width="50" height="50" relative="1" as="geometry">
            <mxPoint x="450" y="430" as="sourcePoint" />
            <mxPoint x="290" y="380" as="targetPoint" />
          </mxGeometry>
        </mxCell>
        <mxCell id="NqNF9cQIyHCTWcrlnUJ7-6" value="" style="endArrow=classic;html=1;rounded=0;exitX=0.5;exitY=0.5;exitDx=0;exitDy=0;exitPerimeter=0;entryX=0;entryY=0.5;entryDx=0;entryDy=0;" parent="1" source="NqNF9cQIyHCTWcrlnUJ7-4" target="SmUW5ULUvjNkLwcwujrM-6" edge="1">
          <mxGeometry width="50" height="50" relative="1" as="geometry">
            <mxPoint x="250" y="306" as="sourcePoint" />
            <mxPoint x="290" y="380" as="targetPoint" />
          </mxGeometry>
        </mxCell>
        <mxCell id="NqNF9cQIyHCTWcrlnUJ7-7" value="Sign&lt;br&gt;Contract" style="shape=cube;whiteSpace=wrap;html=1;boundedLbl=1;backgroundOutline=1;darkOpacity=0.05;darkOpacity2=0.1;fillColor=#e1d5e7;strokeColor=#9673a6;fontStyle=1" parent="1" vertex="1">
          <mxGeometry x="650" y="365" width="110" height="75" as="geometry" />
        </mxCell>
        <mxCell id="NqNF9cQIyHCTWcrlnUJ7-8" value="" style="endArrow=classic;html=1;rounded=0;" parent="1" target="NqNF9cQIyHCTWcrlnUJ7-7" edge="1">
          <mxGeometry width="50" height="50" relative="1" as="geometry">
            <mxPoint x="580" y="403" as="sourcePoint" />
            <mxPoint x="500" y="380" as="targetPoint" />
          </mxGeometry>
        </mxCell>
        <mxCell id="NqNF9cQIyHCTWcrlnUJ7-11" value="IPFS&lt;br&gt;(Contract file)" style="shape=cylinder3;whiteSpace=wrap;html=1;boundedLbl=1;backgroundOutline=1;size=15;fillColor=#f8cecc;strokeColor=#b85450;fontStyle=1" parent="1" vertex="1">
          <mxGeometry x="670" y="545" width="90" height="80" as="geometry" />
        </mxCell>
        <mxCell id="NqNF9cQIyHCTWcrlnUJ7-12" value="" style="endArrow=classic;html=1;rounded=0;entryX=0.5;entryY=0;entryDx=0;entryDy=0;entryPerimeter=0;exitX=0;exitY=0;exitDx=65;exitDy=75;exitPerimeter=0;" parent="1" source="NqNF9cQIyHCTWcrlnUJ7-7" target="NqNF9cQIyHCTWcrlnUJ7-11" edge="1">
          <mxGeometry width="50" height="50" relative="1" as="geometry">
            <mxPoint x="590" y="413" as="sourcePoint" />
            <mxPoint x="660" y="413" as="targetPoint" />
          </mxGeometry>
        </mxCell>
        <mxCell id="NqNF9cQIyHCTWcrlnUJ7-16" value="SignContract has these datas&lt;br&gt;as array!!&lt;br&gt;&lt;br&gt;Signer&#39;s addresses&lt;br&gt;(owner addresses)&lt;br&gt;&lt;br&gt;signatures[]&lt;br&gt;ipfs url&lt;br&gt;&lt;br&gt;approve status" style="rounded=0;whiteSpace=wrap;html=1;fillColor=#fff2cc;strokeColor=#d6b656;align=left;fontStyle=1" parent="1" vertex="1">
          <mxGeometry x="630" y="25" width="180" height="160" as="geometry" />
        </mxCell>
        <mxCell id="NqNF9cQIyHCTWcrlnUJ7-17" value="" style="shape=flexArrow;endArrow=classic;html=1;rounded=0;" parent="1" edge="1">
          <mxGeometry width="50" height="50" relative="1" as="geometry">
            <mxPoint x="720" y="360" as="sourcePoint" />
            <mxPoint x="720" y="190" as="targetPoint" />
          </mxGeometry>
        </mxCell>
        <mxCell id="NqNF9cQIyHCTWcrlnUJ7-18" value="&lt;b&gt;Sign Contract Architecture&lt;/b&gt;" style="text;html=1;strokeColor=none;fillColor=none;align=center;verticalAlign=middle;whiteSpace=wrap;rounded=0;fontSize=24;" parent="1" vertex="1">
          <mxGeometry x="30" y="20" width="310" height="60" as="geometry" />
        </mxCell>
        <mxCell id="NqNF9cQIyHCTWcrlnUJ7-19" value="Web3Stoage" style="rounded=0;whiteSpace=wrap;html=1;fillColor=#dae8fc;strokeColor=#6c8ebf;fontStyle=1" parent="1" vertex="1">
          <mxGeometry x="420" y="570" width="86" height="30" as="geometry" />
        </mxCell>
        <mxCell id="NqNF9cQIyHCTWcrlnUJ7-20" value="" style="endArrow=classic;html=1;rounded=0;entryX=0;entryY=0.5;entryDx=0;entryDy=0;entryPerimeter=0;exitX=1;exitY=0.5;exitDx=0;exitDy=0;" parent="1" source="NqNF9cQIyHCTWcrlnUJ7-19" target="NqNF9cQIyHCTWcrlnUJ7-11" edge="1">
          <mxGeometry width="50" height="50" relative="1" as="geometry">
            <mxPoint x="725" y="450" as="sourcePoint" />
            <mxPoint x="725" y="555" as="targetPoint" />
          </mxGeometry>
        </mxCell>
        <mxCell id="NqNF9cQIyHCTWcrlnUJ7-21" value="The Graph" style="shape=cube;whiteSpace=wrap;html=1;boundedLbl=1;backgroundOutline=1;darkOpacity=0.05;darkOpacity2=0.1;fillColor=#f8cecc;strokeColor=#b85450;fontStyle=1" parent="1" vertex="1">
          <mxGeometry x="390" y="170" width="110" height="75" as="geometry" />
        </mxCell>
        <mxCell id="NqNF9cQIyHCTWcrlnUJ7-23" value="file upload by&lt;br&gt;web3 Storage API&lt;br&gt;from dashboard" style="shape=callout;whiteSpace=wrap;html=1;perimeter=calloutPerimeter;position2=0.8;fillColor=#fff2cc;strokeColor=#d6b656;fontStyle=1;align=left;" parent="1" vertex="1">
          <mxGeometry x="360" y="490" width="120" height="80" as="geometry" />
        </mxCell>
        <mxCell id="SmUW5ULUvjNkLwcwujrM-1" value="" style="endArrow=classic;html=1;rounded=0;entryX=0;entryY=0;entryDx=110;entryDy=47.5;entryPerimeter=0;exitX=0;exitY=0;exitDx=0;exitDy=27.5;exitPerimeter=0;edgeStyle=orthogonalEdgeStyle;" parent="1" source="NqNF9cQIyHCTWcrlnUJ7-7" target="NqNF9cQIyHCTWcrlnUJ7-21" edge="1">
          <mxGeometry width="50" height="50" relative="1" as="geometry">
            <mxPoint x="250" y="306" as="sourcePoint" />
            <mxPoint x="490" y="395" as="targetPoint" />
            <Array as="points">
              <mxPoint x="610" y="393" />
              <mxPoint x="610" y="218" />
            </Array>
          </mxGeometry>
        </mxCell>
        <mxCell id="NqNF9cQIyHCTWcrlnUJ7-10" value="Safe&#39;s owner&lt;br style=&quot;font-size: 13px;&quot;&gt;only access &amp;amp;&lt;br style=&quot;font-size: 13px;&quot;&gt;add Signature" style="shape=callout;whiteSpace=wrap;html=1;perimeter=calloutPerimeter;position2=0;fillColor=#fff2cc;strokeColor=#d6b656;fontStyle=1;align=left;fontSize=13;size=25;position=0.15;" parent="1" vertex="1">
          <mxGeometry x="750" y="290" width="120" height="85" as="geometry" />
        </mxCell>
        <mxCell id="SmUW5ULUvjNkLwcwujrM-2" value="Gasless &amp;amp; AA" style="shape=callout;whiteSpace=wrap;html=1;perimeter=calloutPerimeter;position2=0.83;fillColor=#fff2cc;strokeColor=#d6b656;base=20;align=left;fontStyle=1" parent="1" vertex="1">
          <mxGeometry x="30" y="180" width="100" height="80" as="geometry" />
        </mxCell>
        <mxCell id="SmUW5ULUvjNkLwcwujrM-3" value="Get SignContracts&lt;br&gt;data" style="shape=callout;whiteSpace=wrap;html=1;perimeter=calloutPerimeter;position2=0.83;fillColor=#fff2cc;strokeColor=#d6b656;base=20;align=left;fontStyle=1" parent="1" vertex="1">
          <mxGeometry x="330" y="100" width="120" height="80" as="geometry" />
        </mxCell>
        <mxCell id="SmUW5ULUvjNkLwcwujrM-4" value="&lt;b&gt;BlockChain&lt;/b&gt;" style="text;html=1;strokeColor=none;fillColor=none;align=center;verticalAlign=middle;whiteSpace=wrap;rounded=0;fontSize=24;" parent="1" vertex="1">
          <mxGeometry x="560" y="470" width="150" height="40" as="geometry" />
        </mxCell>
        <mxCell id="SmUW5ULUvjNkLwcwujrM-6" value="frontend" style="rounded=1;whiteSpace=wrap;html=1;fillColor=#dae8fc;strokeColor=#6c8ebf;fontStyle=1;fontSize=18;" parent="1" vertex="1">
          <mxGeometry x="290" y="360" width="120" height="60" as="geometry" />
        </mxCell>
        <mxCell id="SmUW5ULUvjNkLwcwujrM-7" value="" style="endArrow=classic;html=1;rounded=0;entryX=0.5;entryY=0;entryDx=0;entryDy=0;exitX=0;exitY=0;exitDx=0;exitDy=27.5;exitPerimeter=0;edgeStyle=orthogonalEdgeStyle;" parent="1" source="NqNF9cQIyHCTWcrlnUJ7-21" target="SmUW5ULUvjNkLwcwujrM-6" edge="1">
          <mxGeometry width="50" height="50" relative="1" as="geometry">
            <mxPoint x="250" y="306" as="sourcePoint" />
            <mxPoint x="490" y="395" as="targetPoint" />
          </mxGeometry>
        </mxCell>
        <mxCell id="SmUW5ULUvjNkLwcwujrM-8" value="LitProtocol&lt;br style=&quot;font-size: 13px;&quot;&gt;MPC" style="ellipse;shape=cloud;whiteSpace=wrap;html=1;fillColor=#ffe6cc;strokeColor=#d79b00;fontStyle=1;align=center;fontSize=13;" parent="1" vertex="1">
          <mxGeometry x="210" y="600" width="120" height="80" as="geometry" />
        </mxCell>
        <mxCell id="SmUW5ULUvjNkLwcwujrM-10" value="" style="endArrow=classic;html=1;rounded=0;exitX=1;exitY=0.5;exitDx=0;exitDy=0;entryX=0;entryY=0.286;entryDx=0;entryDy=0;entryPerimeter=0;" parent="1" source="SmUW5ULUvjNkLwcwujrM-6" edge="1">
          <mxGeometry width="50" height="50" relative="1" as="geometry">
            <mxPoint x="130" y="317" as="sourcePoint" />
            <mxPoint x="480" y="390.02" as="targetPoint" />
          </mxGeometry>
        </mxCell>
        <mxCell id="SmUW5ULUvjNkLwcwujrM-11" value="" style="endArrow=classic;html=1;rounded=0;entryX=0.4;entryY=0.1;entryDx=0;entryDy=0;entryPerimeter=0;" parent="1" target="SmUW5ULUvjNkLwcwujrM-8" edge="1">
          <mxGeometry width="50" height="50" relative="1" as="geometry">
            <mxPoint x="110" y="470" as="sourcePoint" />
            <mxPoint x="300" y="390" as="targetPoint" />
          </mxGeometry>
        </mxCell>
        <mxCell id="SmUW5ULUvjNkLwcwujrM-12" value="" style="endArrow=classic;html=1;rounded=0;entryX=0.4;entryY=0.1;entryDx=0;entryDy=0;entryPerimeter=0;" parent="1" target="SmUW5ULUvjNkLwcwujrM-8" edge="1">
          <mxGeometry width="50" height="50" relative="1" as="geometry">
            <mxPoint x="120" y="300" as="sourcePoint" />
            <mxPoint x="258" y="563" as="targetPoint" />
          </mxGeometry>
        </mxCell>
        <mxCell id="SmUW5ULUvjNkLwcwujrM-13" value="&lt;b style=&quot;font-size: 15px;&quot;&gt;get PKPInfo&lt;/b&gt;" style="text;html=1;strokeColor=none;fillColor=none;align=left;verticalAlign=middle;whiteSpace=wrap;rounded=0;fontSize=15;" parent="1" vertex="1">
          <mxGeometry x="270" y="560" width="100" height="40" as="geometry" />
        </mxCell>
        <mxCell id="SmUW5ULUvjNkLwcwujrM-14" value="AA Core Kit&lt;br&gt;Relay Kit" style="rounded=0;whiteSpace=wrap;html=1;fillColor=#008a00;fontColor=#ffffff;strokeColor=#005700;align=left;fontStyle=1" parent="1" vertex="1">
          <mxGeometry x="501" y="422" width="80" height="40" as="geometry" />
        </mxCell>
        <mxCell id="UatZgbgzc0gP-5SxaAQF-1" value="Google Auth&lt;br style=&quot;font-size: 14px;&quot;&gt;or&lt;br style=&quot;font-size: 14px;&quot;&gt;WebAuthn" style="rounded=1;whiteSpace=wrap;html=1;fillColor=#f8cecc;strokeColor=#b85450;fontStyle=1;fontSize=14;gradientColor=#ea6b66;" vertex="1" parent="1">
          <mxGeometry x="156" y="520" width="110" height="50" as="geometry" />
        </mxCell>
        <mxCell id="TJgzJon0xDSs378LVDWL-1" value="&lt;b&gt;create Tx data&lt;/b&gt;" style="text;html=1;strokeColor=none;fillColor=none;align=left;verticalAlign=middle;whiteSpace=wrap;rounded=0;fontSize=15;" vertex="1" parent="1">
          <mxGeometry x="180" y="290" width="110" height="40" as="geometry" />
        </mxCell>
        <mxCell id="TJgzJon0xDSs378LVDWL-2" value="&lt;b&gt;get Contract&#39;s data&lt;/b&gt;" style="text;html=1;strokeColor=none;fillColor=none;align=left;verticalAlign=middle;whiteSpace=wrap;rounded=0;fontSize=15;" vertex="1" parent="1">
          <mxGeometry x="230" y="205" width="110" height="40" as="geometry" />
        </mxCell>
        <mxCell id="TJgzJon0xDSs378LVDWL-4" value="&lt;b&gt;indexes data&lt;/b&gt;" style="text;html=1;strokeColor=none;fillColor=none;align=left;verticalAlign=middle;whiteSpace=wrap;rounded=0;fontSize=15;" vertex="1" parent="1">
          <mxGeometry x="510" y="170" width="100" height="40" as="geometry" />
        </mxCell>
        <mxCell id="cQllOv1gWBpKFB_0szt9-1" value="&lt;b&gt;send Tx&lt;/b&gt;" style="text;html=1;strokeColor=none;fillColor=none;align=left;verticalAlign=middle;whiteSpace=wrap;rounded=0;fontSize=15;" vertex="1" parent="1">
          <mxGeometry x="414" y="335" width="70" height="40" as="geometry" />
        </mxCell>
      </root>
    </mxGraphModel>
  </diagram>
  <diagram id="28Rc1KQdF87eafClvdSU" name="CrossMintNFT">
    <mxGraphModel dx="2069" dy="832" grid="1" gridSize="10" guides="1" tooltips="1" connect="1" arrows="1" fold="1" page="1" pageScale="1" pageWidth="827" pageHeight="1169" math="0" shadow="0">
      <root>
        <mxCell id="0" />
        <mxCell id="1" parent="0" />
        <mxCell id="jwgGcmSYX71UNvTEU-Vu-1" value="&lt;b&gt;Mint omnichain NFT&amp;nbsp;Architecture&lt;/b&gt;" style="text;html=1;strokeColor=none;fillColor=none;align=center;verticalAlign=middle;whiteSpace=wrap;rounded=0;fontSize=24;" parent="1" vertex="1">
          <mxGeometry x="-110" y="20" width="440" height="60" as="geometry" />
        </mxCell>
        <mxCell id="M0nGRy6fjn5bTI-sQpte-1" value="" style="ellipse;shape=cloud;whiteSpace=wrap;html=1;fillColor=#b0e3e6;strokeColor=#0e8088;" parent="1" vertex="1">
          <mxGeometry x="720" y="170" width="310" height="330" as="geometry" />
        </mxCell>
        <mxCell id="M0nGRy6fjn5bTI-sQpte-2" value="" style="ellipse;shape=cloud;whiteSpace=wrap;html=1;fillColor=#ffff88;strokeColor=#36393d;" parent="1" vertex="1">
          <mxGeometry x="340" y="175" width="380" height="335" as="geometry" />
        </mxCell>
        <mxCell id="INiVS7CGIe1IbO_SFpA0-1" value="&lt;b&gt;Fuji Network&lt;/b&gt;" style="text;html=1;strokeColor=none;fillColor=none;align=center;verticalAlign=middle;whiteSpace=wrap;rounded=0;fontSize=24;" parent="1" vertex="1">
          <mxGeometry x="470" y="408" width="150" height="40" as="geometry" />
        </mxCell>
        <mxCell id="INiVS7CGIe1IbO_SFpA0-2" value="&lt;b&gt;Mumbai Network&lt;/b&gt;" style="text;html=1;strokeColor=none;fillColor=none;align=center;verticalAlign=middle;whiteSpace=wrap;rounded=0;fontSize=24;" parent="1" vertex="1">
          <mxGeometry x="780" y="408" width="200" height="40" as="geometry" />
        </mxCell>
        <mxCell id="GuFkAknfKRUBFrbLugNE-1" value="CCIP&lt;br style=&quot;border-color: var(--border-color);&quot;&gt;Sender&lt;br style=&quot;border-color: var(--border-color);&quot;&gt;Contract" style="shape=cube;whiteSpace=wrap;html=1;boundedLbl=1;backgroundOutline=1;darkOpacity=0.05;darkOpacity2=0.1;fillColor=#d5e8d4;strokeColor=#82b366;fontStyle=1" parent="1" vertex="1">
          <mxGeometry x="580" y="303" width="100" height="80" as="geometry" />
        </mxCell>
        <mxCell id="GuFkAknfKRUBFrbLugNE-2" value="CCIP&lt;br&gt;Receiver&lt;br&gt;Contract" style="shape=cube;whiteSpace=wrap;html=1;boundedLbl=1;backgroundOutline=1;darkOpacity=0.05;darkOpacity2=0.1;fillColor=#e1d5e7;strokeColor=#9673a6;fontStyle=1" parent="1" vertex="1">
          <mxGeometry x="773" y="315" width="110" height="75" as="geometry" />
        </mxCell>
        <mxCell id="GuFkAknfKRUBFrbLugNE-3" value="NFT&lt;br&gt;Contract" style="shape=cube;whiteSpace=wrap;html=1;boundedLbl=1;backgroundOutline=1;darkOpacity=0.05;darkOpacity2=0.1;fillColor=#bac8d3;strokeColor=#23445d;fontStyle=1" parent="1" vertex="1">
          <mxGeometry x="910" y="315" width="90" height="80" as="geometry" />
        </mxCell>
        <mxCell id="GuFkAknfKRUBFrbLugNE-4" value="EntryPoint&lt;br&gt;Contract" style="shape=cube;whiteSpace=wrap;html=1;boundedLbl=1;backgroundOutline=1;darkOpacity=0.05;darkOpacity2=0.1;fillColor=#fad7ac;strokeColor=#b46504;fontStyle=1" parent="1" vertex="1">
          <mxGeometry x="410" y="295" width="120" height="85" as="geometry" />
        </mxCell>
        <mxCell id="bhM9uuMMTKp0rpI3aN-4-1" value="frontend" style="rounded=1;whiteSpace=wrap;html=1;fillColor=#dae8fc;strokeColor=#6c8ebf;fontStyle=1;fontSize=18;" parent="1" vertex="1">
          <mxGeometry x="60" y="303" width="100" height="50" as="geometry" />
        </mxCell>
        <mxCell id="bhM9uuMMTKp0rpI3aN-4-2" value="LitProtocol&lt;br style=&quot;font-size: 13px;&quot;&gt;MPC" style="ellipse;shape=cloud;whiteSpace=wrap;html=1;fillColor=#ffe6cc;strokeColor=#d79b00;fontStyle=1;align=center;fontSize=13;" parent="1" vertex="1">
          <mxGeometry x="40" y="460" width="120" height="80" as="geometry" />
        </mxCell>
        <mxCell id="bhM9uuMMTKp0rpI3aN-4-4" value="Bundler" style="rounded=0;whiteSpace=wrap;html=1;fillColor=#ffcccc;strokeColor=#36393d;fontStyle=1;fontSize=18;" parent="1" vertex="1">
          <mxGeometry x="230" y="308" width="110" height="40" as="geometry" />
        </mxCell>
        <mxCell id="bhM9uuMMTKp0rpI3aN-4-5" value="Paymaster" style="rounded=0;whiteSpace=wrap;html=1;fillColor=#d5e8d4;strokeColor=#82b366;fontStyle=1;fontSize=18;" parent="1" vertex="1">
          <mxGeometry x="230" y="420" width="110" height="40" as="geometry" />
        </mxCell>
        <mxCell id="Md2waMiczMvUkXNCsYrd-1" value="Actor1" style="shape=umlActor;verticalLabelPosition=bottom;verticalAlign=top;html=1;outlineConnect=0;" parent="1" vertex="1">
          <mxGeometry x="-70" y="298" width="30" height="60" as="geometry" />
        </mxCell>
        <mxCell id="Md2waMiczMvUkXNCsYrd-2" value="Gasless &amp;amp; AA" style="shape=callout;whiteSpace=wrap;html=1;perimeter=calloutPerimeter;position2=0.4;fillColor=#fff2cc;strokeColor=#d6b656;base=20;align=left;fontStyle=1" parent="1" vertex="1">
          <mxGeometry x="250" y="215" width="100" height="80" as="geometry" />
        </mxCell>
        <mxCell id="atek8VkmVyBKjy96xsKJ-1" value="" style="endArrow=classic;html=1;rounded=0;entryX=0.25;entryY=0.25;entryDx=0;entryDy=0;entryPerimeter=0;exitX=0.5;exitY=0.5;exitDx=0;exitDy=0;exitPerimeter=0;" edge="1" parent="1" source="Md2waMiczMvUkXNCsYrd-1" target="bhM9uuMMTKp0rpI3aN-4-2">
          <mxGeometry width="50" height="50" relative="1" as="geometry">
            <mxPoint x="120" y="300" as="sourcePoint" />
            <mxPoint x="258" y="608" as="targetPoint" />
          </mxGeometry>
        </mxCell>
        <mxCell id="atek8VkmVyBKjy96xsKJ-2" value="&lt;b style=&quot;font-size: 15px;&quot;&gt;get PKPInfo&lt;/b&gt;" style="text;html=1;strokeColor=none;fillColor=none;align=left;verticalAlign=middle;whiteSpace=wrap;rounded=0;fontSize=15;" vertex="1" parent="1">
          <mxGeometry x="-50" y="448" width="100" height="40" as="geometry" />
        </mxCell>
        <mxCell id="atek8VkmVyBKjy96xsKJ-3" value="Google Auth&lt;br style=&quot;font-size: 14px;&quot;&gt;or&lt;br style=&quot;font-size: 14px;&quot;&gt;WebAuthn" style="rounded=1;whiteSpace=wrap;html=1;fillColor=#f8cecc;strokeColor=#b85450;fontStyle=1;fontSize=14;gradientColor=#ea6b66;" vertex="1" parent="1">
          <mxGeometry x="-30" y="390" width="110" height="50" as="geometry" />
        </mxCell>
        <mxCell id="atek8VkmVyBKjy96xsKJ-4" value="" style="endArrow=classic;html=1;rounded=0;exitX=0.5;exitY=0.5;exitDx=0;exitDy=0;exitPerimeter=0;" edge="1" parent="1" source="Md2waMiczMvUkXNCsYrd-1" target="bhM9uuMMTKp0rpI3aN-4-1">
          <mxGeometry width="50" height="50" relative="1" as="geometry">
            <mxPoint x="-125" y="350" as="sourcePoint" />
            <mxPoint x="90" y="510" as="targetPoint" />
          </mxGeometry>
        </mxCell>
        <mxCell id="atek8VkmVyBKjy96xsKJ-5" style="edgeStyle=orthogonalEdgeStyle;rounded=0;orthogonalLoop=1;jettySize=auto;html=1;exitX=0.5;exitY=1;exitDx=0;exitDy=0;" edge="1" parent="1" source="bhM9uuMMTKp0rpI3aN-4-1" target="bhM9uuMMTKp0rpI3aN-4-1">
          <mxGeometry relative="1" as="geometry" />
        </mxCell>
        <mxCell id="atek8VkmVyBKjy96xsKJ-6" value="&lt;b&gt;create Tx data&lt;/b&gt;" style="text;html=1;strokeColor=none;fillColor=none;align=left;verticalAlign=middle;whiteSpace=wrap;rounded=0;fontSize=15;" vertex="1" parent="1">
          <mxGeometry x="-40" y="263" width="110" height="40" as="geometry" />
        </mxCell>
        <mxCell id="W53r9n1JahBjmL4cvsF7-1" value="" style="endArrow=classic;html=1;rounded=0;exitX=1;exitY=0.5;exitDx=0;exitDy=0;entryX=0;entryY=0.5;entryDx=0;entryDy=0;" edge="1" parent="1" source="bhM9uuMMTKp0rpI3aN-4-1" target="bhM9uuMMTKp0rpI3aN-4-4">
          <mxGeometry width="50" height="50" relative="1" as="geometry">
            <mxPoint x="-125" y="350" as="sourcePoint" />
            <mxPoint x="50" y="354" as="targetPoint" />
          </mxGeometry>
        </mxCell>
        <mxCell id="W53r9n1JahBjmL4cvsF7-2" value="&lt;b&gt;send userOp&lt;/b&gt;" style="text;html=1;strokeColor=none;fillColor=none;align=left;verticalAlign=middle;whiteSpace=wrap;rounded=0;fontSize=15;" vertex="1" parent="1">
          <mxGeometry x="150" y="268" width="100" height="40" as="geometry" />
        </mxCell>
        <mxCell id="nJW1QheDv6ySgnilsX-W-1" value="" style="endArrow=classic;html=1;rounded=0;exitX=0.5;exitY=0;exitDx=0;exitDy=0;entryX=0.5;entryY=1;entryDx=0;entryDy=0;startArrow=blockThin;startFill=1;" edge="1" parent="1" source="bhM9uuMMTKp0rpI3aN-4-5" target="bhM9uuMMTKp0rpI3aN-4-4">
          <mxGeometry width="50" height="50" relative="1" as="geometry">
            <mxPoint x="170" y="355" as="sourcePoint" />
            <mxPoint x="240" y="310" as="targetPoint" />
          </mxGeometry>
        </mxCell>
        <mxCell id="nJW1QheDv6ySgnilsX-W-2" value="" style="endArrow=classic;html=1;rounded=0;exitX=1;exitY=0.5;exitDx=0;exitDy=0;entryX=0;entryY=0;entryDx=0;entryDy=32.5;entryPerimeter=0;" edge="1" parent="1" source="bhM9uuMMTKp0rpI3aN-4-4" target="GuFkAknfKRUBFrbLugNE-4">
          <mxGeometry width="50" height="50" relative="1" as="geometry">
            <mxPoint x="170" y="355" as="sourcePoint" />
            <mxPoint x="240" y="310" as="targetPoint" />
          </mxGeometry>
        </mxCell>
        <mxCell id="nJW1QheDv6ySgnilsX-W-3" value="&lt;b&gt;send Tx&lt;/b&gt;" style="text;html=1;strokeColor=none;fillColor=none;align=left;verticalAlign=middle;whiteSpace=wrap;rounded=0;fontSize=15;" vertex="1" parent="1">
          <mxGeometry x="340" y="268" width="60" height="40" as="geometry" />
        </mxCell>
        <mxCell id="nJW1QheDv6ySgnilsX-W-6" value="" style="endArrow=classic;html=1;rounded=0;exitX=0;exitY=0;exitDx=120;exitDy=52.5;entryX=-0.01;entryY=0.563;entryDx=0;entryDy=0;entryPerimeter=0;exitPerimeter=0;" edge="1" parent="1" source="GuFkAknfKRUBFrbLugNE-4" target="GuFkAknfKRUBFrbLugNE-1">
          <mxGeometry width="50" height="50" relative="1" as="geometry">
            <mxPoint x="350" y="338" as="sourcePoint" />
            <mxPoint x="420" y="338" as="targetPoint" />
          </mxGeometry>
        </mxCell>
        <mxCell id="nJW1QheDv6ySgnilsX-W-7" value="" style="endArrow=classic;html=1;rounded=0;exitX=0;exitY=0;exitDx=100;exitDy=50;entryX=0.064;entryY=0.5;entryDx=0;entryDy=0;entryPerimeter=0;exitPerimeter=0;" edge="1" parent="1" source="GuFkAknfKRUBFrbLugNE-1" target="GuFkAknfKRUBFrbLugNE-2">
          <mxGeometry width="50" height="50" relative="1" as="geometry">
            <mxPoint x="540" y="358" as="sourcePoint" />
            <mxPoint x="589" y="358" as="targetPoint" />
          </mxGeometry>
        </mxCell>
        <mxCell id="nJW1QheDv6ySgnilsX-W-8" value="&lt;b&gt;call sender method&lt;/b&gt;" style="text;html=1;strokeColor=none;fillColor=none;align=left;verticalAlign=middle;whiteSpace=wrap;rounded=0;fontSize=15;" vertex="1" parent="1">
          <mxGeometry x="520" y="263" width="90" height="40" as="geometry" />
        </mxCell>
        <mxCell id="nJW1QheDv6ySgnilsX-W-9" value="&lt;b&gt;send&amp;nbsp;&lt;br&gt;CCIP messeage&lt;br&gt;&lt;/b&gt;" style="text;html=1;strokeColor=none;fillColor=none;align=left;verticalAlign=middle;whiteSpace=wrap;rounded=0;fontSize=15;" vertex="1" parent="1">
          <mxGeometry x="660" y="258" width="127" height="40" as="geometry" />
        </mxCell>
        <mxCell id="nJW1QheDv6ySgnilsX-W-10" value="&lt;b&gt;call send method&lt;/b&gt;" style="text;html=1;strokeColor=none;fillColor=none;align=left;verticalAlign=middle;whiteSpace=wrap;rounded=0;fontSize=15;" vertex="1" parent="1">
          <mxGeometry x="860" y="268" width="90" height="40" as="geometry" />
        </mxCell>
      </root>
    </mxGraphModel>
  </diagram>
</mxfile>
